<svg width="180" height="36" viewBox="0 0 180 36" fill="none" xmlns="http://www.w3.org/2000/svg">
<path d="M7.3125 15.865V8.88504C7.3125 8.0372 6.32364 7.57405 5.67232 8.11682L1.48437 11.6068C1.00461 12.0066 1.00461 12.7434 1.48437 13.1432L5.67232 16.6332C6.32364 17.176 7.3125 16.7128 7.3125 15.865Z" fill="#11142D"/>
<path d="M172.125 15.865V8.88504C172.125 8.0372 173.114 7.57405 173.765 8.11682L177.953 11.6068C178.433 12.0066 178.433 12.7434 177.953 13.1432L173.765 16.6332C173.114 17.176 172.125 16.7128 172.125 15.865Z" fill="#0D92DC"/>
<path d="M7.3125 27.115V20.135C7.3125 19.2872 6.32364 18.824 5.67232 19.3668L1.48437 22.8568C1.00461 23.2566 1.00461 23.9934 1.48437 24.3932L5.67232 27.8832C6.32364 28.426 7.3125 27.9628 7.3125 27.115Z" fill="#11142D"/>
<path d="M172.125 27.115V20.135C172.125 19.2872 173.114 18.824 173.765 19.3668L177.953 22.8568C178.433 23.2566 178.433 23.9934 177.953 24.3932L173.765 27.8832C173.114 28.426 172.125 27.9628 172.125 27.115Z" fill="#0D92DC"/>
<path d="M155.588 19.1092V28.6877H150.993V12.1195H155.373V15.0427H155.567C155.933 14.0791 156.548 13.3168 157.411 12.7559C158.274 12.1879 159.32 11.9038 160.55 11.9038C161.701 11.9038 162.704 12.1555 163.56 12.6589C164.415 13.1622 165.08 13.8813 165.555 14.8162C166.03 15.7438 166.267 16.8513 166.267 18.1385V28.6877H161.672V18.9582C161.679 17.9443 161.42 17.1533 160.895 16.5852C160.37 16.0099 159.648 15.7223 158.727 15.7223C158.109 15.7223 157.562 15.8553 157.088 16.1214C156.62 16.3874 156.253 16.7757 155.987 17.2863C155.728 17.7897 155.595 18.3973 155.588 19.1092Z" fill="#0D92DC"/>
<path d="M138.705 29.0005C137.648 29.0005 136.706 28.8172 135.879 28.4504C135.052 28.0765 134.398 27.5264 133.916 26.8001C133.441 26.0666 133.204 25.1533 133.204 24.0603C133.204 23.1398 133.373 22.3668 133.711 21.7412C134.049 21.1155 134.509 20.6122 135.092 20.231C135.674 19.8499 136.336 19.5623 137.076 19.3681C137.824 19.174 138.608 19.0373 139.428 18.9582C140.392 18.8576 141.168 18.7641 141.758 18.6778C142.348 18.5843 142.775 18.4477 143.041 18.2679C143.308 18.0881 143.441 17.822 143.441 17.4697V17.405C143.441 16.7218 143.225 16.1933 142.793 15.8193C142.369 15.4454 141.765 15.2584 140.981 15.2584C140.154 15.2584 139.496 15.4418 139.007 15.8085C138.518 16.1681 138.195 16.6211 138.036 17.1677L133.787 16.8225C134.002 15.8157 134.427 14.9456 135.059 14.2121C135.692 13.4715 136.508 12.9034 137.508 12.5079C138.515 12.1052 139.68 11.9038 141.003 11.9038C141.923 11.9038 142.804 12.0117 143.646 12.2274C144.494 12.4431 145.246 12.7775 145.9 13.2306C146.561 13.6836 147.083 14.2661 147.464 14.978C147.845 15.6827 148.036 16.5277 148.036 17.5128V28.6877H143.678V26.3902H143.548C143.282 26.9079 142.926 27.3646 142.481 27.7601C142.035 28.1484 141.499 28.454 140.873 28.6769C140.248 28.8927 139.525 29.0005 138.705 29.0005ZM140.021 25.8293C140.697 25.8293 141.294 25.6962 141.812 25.4302C142.33 25.1569 142.736 24.7902 143.031 24.3299C143.326 23.8697 143.473 23.3484 143.473 22.7659V21.0077C143.329 21.1012 143.131 21.1875 142.88 21.2666C142.635 21.3385 142.358 21.4068 142.049 21.4715C141.74 21.529 141.431 21.583 141.121 21.6333C140.812 21.6764 140.532 21.716 140.28 21.752C139.741 21.8311 139.27 21.9569 138.867 22.1295C138.464 22.3021 138.152 22.5358 137.929 22.8306C137.706 23.1183 137.594 23.4778 137.594 23.9093C137.594 24.5349 137.821 25.0131 138.274 25.3439C138.734 25.6675 139.316 25.8293 140.021 25.8293Z" fill="#0D92DC"/>
<path d="M115.367 34.3383V12.1195H119.897V14.9025H120.102C120.303 14.4566 120.595 14.0036 120.976 13.5434C121.364 13.0759 121.867 12.6876 122.486 12.3784C123.111 12.062 123.888 11.9038 124.816 11.9038C126.024 11.9038 127.138 12.2202 128.16 12.853C129.181 13.4786 129.997 14.4243 130.608 15.6899C131.219 16.9483 131.525 18.5268 131.525 20.4252C131.525 22.2733 131.227 23.8338 130.63 25.1066C130.04 26.3722 129.235 27.3322 128.214 27.9866C127.2 28.6338 126.063 28.9574 124.805 28.9574C123.913 28.9574 123.155 28.81 122.529 28.5151C121.911 28.2203 121.404 27.85 121.008 27.4041C120.613 26.9511 120.311 26.4944 120.102 26.0342H119.962V34.3383H115.367ZM119.865 20.4036C119.865 21.3888 120.001 22.2481 120.275 22.9816C120.548 23.7151 120.943 24.2868 121.461 24.6967C121.979 25.0994 122.608 25.3007 123.349 25.3007C124.097 25.3007 124.729 25.0958 125.247 24.6859C125.765 24.2688 126.157 23.6935 126.423 22.96C126.696 22.2194 126.833 21.3672 126.833 20.4036C126.833 19.4472 126.7 18.6059 126.434 17.8796C126.168 17.1533 125.776 16.5852 125.258 16.1753C124.74 15.7654 124.104 15.5605 123.349 15.5605C122.601 15.5605 121.968 15.7582 121.45 16.1537C120.94 16.5492 120.548 17.1101 120.275 17.8364C120.001 18.5627 119.865 19.4185 119.865 20.4036Z" fill="#0D92DC"/>
<path d="M108.141 12.9498C108.054 12.0796 107.684 11.4037 107.03 10.9219C106.375 10.4401 105.487 10.1992 104.365 10.1992C103.603 10.1992 102.959 10.307 102.435 10.5228C101.91 10.7313 101.507 11.0226 101.226 11.3965C100.953 11.7704 100.817 12.1947 100.817 12.6693C100.802 13.0648 100.885 13.41 101.065 13.7048C101.252 13.9996 101.507 14.2549 101.83 14.4707C102.154 14.6792 102.528 14.8626 102.952 15.0208C103.377 15.1718 103.83 15.3012 104.311 15.4091L106.296 15.8837C107.26 16.0994 108.144 16.3871 108.95 16.7466C109.755 17.1062 110.453 17.5484 111.042 18.0734C111.632 18.5983 112.089 19.2168 112.412 19.9287C112.743 20.6406 112.912 21.4568 112.919 22.3772C112.912 23.7291 112.567 24.9013 111.884 25.8936C111.208 26.8788 110.23 27.6447 108.95 28.1912C107.677 28.7305 106.142 29.0002 104.344 29.0002C102.56 29.0002 101.007 28.7269 99.6839 28.1804C98.368 27.6339 97.3397 26.8249 96.599 25.7534C95.8655 24.6748 95.4808 23.3408 95.4448 21.7516H99.9644C100.015 22.4923 100.227 23.1107 100.601 23.6069C100.982 24.0959 101.489 24.4662 102.122 24.7179C102.762 24.9624 103.484 25.0847 104.29 25.0847C105.081 25.0847 105.768 24.9696 106.35 24.7395C106.94 24.5094 107.396 24.1894 107.72 23.7795C108.044 23.3696 108.205 22.8986 108.205 22.3664C108.205 21.8703 108.058 21.4532 107.763 21.1152C107.475 20.7772 107.051 20.4896 106.49 20.2523C105.937 20.015 105.257 19.7992 104.452 19.6051L102.046 19.001C100.184 18.548 98.7132 17.8397 97.6345 16.8761C96.5558 15.9125 96.0201 14.6145 96.0273 12.9821C96.0201 11.6446 96.3761 10.476 97.0952 9.47648C97.8215 8.47692 98.8174 7.69669 100.083 7.13579C101.349 6.57489 102.787 6.29443 104.398 6.29443C106.037 6.29443 107.468 6.57489 108.691 7.13579C109.92 7.69669 110.877 8.47692 111.56 9.47648C112.243 10.476 112.595 11.6338 112.617 12.9498H108.141Z" fill="#0D92DC"/>
<path d="M82.3773 19.1092V28.6877H77.7822V12.1195H82.1616V15.0427H82.3557C82.7225 14.0791 83.3373 13.3168 84.2002 12.7559C85.0632 12.1879 86.1095 11.9038 87.3391 11.9038C88.4897 11.9038 89.4928 12.1555 90.3486 12.6589C91.2043 13.1622 91.8695 13.8813 92.3441 14.8162C92.8187 15.7438 93.056 16.8513 93.056 18.1385V28.6877H88.4609V18.9582C88.4681 17.9443 88.2092 17.1533 87.6843 16.5852C87.1594 16.0099 86.4367 15.7223 85.5162 15.7223C84.8978 15.7223 84.3512 15.8553 83.8766 16.1214C83.4092 16.3874 83.0425 16.7757 82.7764 17.2863C82.5175 17.7897 82.3845 18.3973 82.3773 19.1092Z" fill="#11142D"/>
<path d="M70.114 28.6874V12.1192H74.7091V28.6874H70.114ZM72.4223 9.98349C71.7392 9.98349 71.1531 9.75697 70.6641 9.30393C70.1823 8.84371 69.9414 8.29359 69.9414 7.65359C69.9414 7.02077 70.1823 6.47785 70.6641 6.02481C71.1531 5.56459 71.7392 5.33447 72.4223 5.33447C73.1055 5.33447 73.6879 5.56459 74.1697 6.02481C74.6587 6.47785 74.9032 7.02077 74.9032 7.65359C74.9032 8.29359 74.6587 8.84371 74.1697 9.30393C73.6879 9.75697 73.1055 9.98349 72.4223 9.98349Z" fill="#11142D"/>
<path d="M57.8259 29.0005C56.7688 29.0005 55.8267 28.8172 54.9998 28.4504C54.1728 28.0765 53.5184 27.5264 53.0366 26.8001C52.562 26.0666 52.3247 25.1533 52.3247 24.0603C52.3247 23.1398 52.4937 22.3668 52.8317 21.7412C53.1697 21.1155 53.6299 20.6122 54.2124 20.231C54.7948 19.8499 55.4564 19.5623 56.1971 19.3681C56.945 19.174 57.7288 19.0373 58.5486 18.9582C59.5122 18.8576 60.2888 18.7641 60.8785 18.6778C61.4681 18.5843 61.896 18.4477 62.1621 18.2679C62.4281 18.0881 62.5612 17.822 62.5612 17.4697V17.405C62.5612 16.7218 62.3454 16.1933 61.914 15.8193C61.4897 15.4454 60.8856 15.2584 60.1018 15.2584C59.2749 15.2584 58.6169 15.4418 58.1279 15.8085C57.6389 16.1681 57.3153 16.6211 57.1571 17.1677L52.9072 16.8225C53.1229 15.8157 53.5472 14.9456 54.18 14.2121C54.8128 13.4715 55.629 12.9034 56.6285 12.5079C57.6353 12.1052 58.8002 11.9038 60.1234 11.9038C61.0439 11.9038 61.9248 12.0117 62.7661 12.2274C63.6147 12.4431 64.3661 12.7775 65.0205 13.2306C65.6821 13.6836 66.2034 14.2661 66.5846 14.978C66.9657 15.6827 67.1562 16.5277 67.1562 17.5128V28.6877H62.7985V26.3902H62.669C62.403 26.9079 62.047 27.3646 61.6012 27.7601C61.1553 28.1484 60.6196 28.454 59.994 28.6769C59.3683 28.8927 58.6456 29.0005 57.8259 29.0005ZM59.1418 25.8293C59.8178 25.8293 60.4146 25.6962 60.9324 25.4302C61.4501 25.1569 61.8564 24.7902 62.1513 24.3299C62.4461 23.8697 62.5935 23.3484 62.5935 22.7659V21.0077C62.4497 21.1012 62.2519 21.1875 62.0003 21.2666C61.7558 21.3385 61.4789 21.4068 61.1697 21.4715C60.8605 21.529 60.5513 21.583 60.242 21.6333C59.9328 21.6764 59.6524 21.716 59.4007 21.752C58.8614 21.8311 58.3904 21.9569 57.9877 22.1295C57.585 22.3021 57.2721 22.5358 57.0492 22.8306C56.8263 23.1183 56.7148 23.4778 56.7148 23.9093C56.7148 24.5349 56.9414 25.0131 57.3944 25.3439C57.8546 25.6675 58.4371 25.8293 59.1418 25.8293Z" fill="#11142D"/>
<path d="M39.3495 19.1091V28.6876H34.7544V6.59668H39.22V15.0426H39.4142C39.7881 14.0646 40.3922 13.2987 41.2263 12.745C42.0605 12.1841 43.1068 11.9037 44.3652 11.9037C45.5158 11.9037 46.519 12.1554 47.3747 12.6587C48.2376 13.1549 48.9064 13.8704 49.381 14.8053C49.8628 15.7329 50.1001 16.8439 50.0929 18.1383V28.6876H45.4978V18.9581C45.505 17.937 45.2461 17.1424 44.7212 16.5743C44.2034 16.0062 43.4771 15.7221 42.5423 15.7221C41.9167 15.7221 41.363 15.8552 40.8812 16.1212C40.4066 16.3873 40.0326 16.7756 39.7594 17.2862C39.4933 17.7896 39.3567 18.3972 39.3495 19.1091Z" fill="#11142D"/>
<path d="M32.0989 14.3304H27.3744C27.2881 13.7192 27.1119 13.1763 26.8458 12.7017C26.5798 12.2199 26.2382 11.81 25.8211 11.472C25.404 11.134 24.9222 10.8751 24.3757 10.6954C23.8364 10.5156 23.2503 10.4257 22.6175 10.4257C21.4741 10.4257 20.4782 10.7097 19.6296 11.2778C18.7811 11.8387 18.1231 12.6585 17.6557 13.7372C17.1883 14.8086 16.9545 16.1102 16.9545 17.6419C16.9545 19.2168 17.1883 20.5399 17.6557 21.6114C18.1303 22.6828 18.7919 23.4918 19.6404 24.0384C20.4889 24.5849 21.4705 24.8581 22.5851 24.8581C23.2108 24.8581 23.7896 24.7754 24.3218 24.61C24.8611 24.4446 25.3393 24.2037 25.7564 23.8873C26.1735 23.5637 26.5186 23.1718 26.7919 22.7116C27.0724 22.2514 27.2665 21.7264 27.3744 21.1368L32.0989 21.1583C31.9767 22.1723 31.671 23.1503 31.182 24.0923C30.7002 25.0271 30.0495 25.8649 29.2297 26.6056C28.4171 27.339 27.4463 27.9215 26.3173 28.353C25.1955 28.7773 23.9263 28.9894 22.5096 28.9894C20.5393 28.9894 18.7775 28.5435 17.2242 27.6519C15.6781 26.7602 14.4557 25.4694 13.5568 23.7795C12.6651 22.0896 12.2192 20.0437 12.2192 17.6419C12.2192 15.2329 12.6723 13.1835 13.5783 11.4936C14.4844 9.80367 15.7141 8.51647 17.2674 7.63197C18.8206 6.74028 20.5681 6.29443 22.5096 6.29443C23.7896 6.29443 24.9762 6.47421 26.0692 6.83376C27.1694 7.19332 28.1438 7.71826 28.9924 8.4086C29.8409 9.09175 30.5313 9.92951 31.0634 10.9219C31.6027 11.9142 31.9479 13.0504 32.0989 14.3304Z" fill="#11142D"/>
</svg>
